<svg xmlns="http://www.w3.org/2000/svg" xmlns:xlink="http://www.w3.org/1999/xlink" xml:space="preserve" style="shape-rendering:geometricPrecision;text-rendering:geometricPrecision;image-rendering:optimizeQuality;" viewBox="0 0 6.82666 8.533325000000001" version="1.1" x="0px" y="0px" fill-rule="evenodd" clip-rule="evenodd"><defs><style type="text/css">
   
    .fil1 {fill:none}
    .fil0 {fill:black}
   
  </style></defs><g><g><path class="fil0" d="M3.36187 0.812154l0.000137795 0 -0.000137795 0zm-2.1158 4.30485c0.0215433,0 0.0418819,0.00990945 0.0552795,0.0269961 0.0142756,0.0182362 0.0185118,0.0423622 0.0115709,0.0644331 -0.0155748,0.0488858 -0.0235039,0.100047 -0.0235039,0.151937 7.87402e-006,0.270386 0.220094,0.494024 0.490488,0.498531 0.0241339,0.000362205 0.0464094,0.0131535 0.0589567,0.0337362 0.136437,0.225083 0.374783,0.359563 0.637626,0.359563 0.410858,0 0.745177,-0.334346 0.745177,-0.745181l-0.000114173 -4.69486c0,-0.128091 -0.106461,-0.236937 -0.232402,-0.237685l-0.00290157 0c-0.127157,0 -0.217315,0.0463937 -0.321209,0.16548 -0.0132717,0.0152598 -0.0326457,0.0240197 -0.0528661,0.0240197 -0.020315,-1.9685e-005 -0.0395827,-0.00879134 -0.0528583,-0.0240906 -0.0915709,-0.105114 -0.223748,-0.165409 -0.362728,-0.165409 -0.265524,0 -0.481476,0.216004 -0.481476,0.481496 0,0.0137205 0.000610236,0.0276693 0.00207087,0.0426142 0.00231496,0.0249016 -0.00877165,0.0491732 -0.0292362,0.0636811 -0.0203268,0.0145118 -0.0468898,0.0170748 -0.0696654,0.00672047 -0.0689409,-0.0312913 -0.142508,-0.0455551 -0.218756,-0.0423583 -0.240299,0.00987402 -0.437512,0.197693 -0.458949,0.43685 -0.00766142,0.0845984 0.00633858,0.166854 0.0414134,0.244516 0.00987008,0.0216693 0.00804331,0.0468701 -0.00487008,0.0668937 -0.0129134,0.02 -0.0349567,0.0321417 -0.0588307,0.0322008 -0.236161,0.000598425 -0.428378,0.19324 -0.428378,0.429413 2.3622e-005,0.152311 0.0819724,0.294756 0.213764,0.371736 0.0208465,0.0121102 0.0338622,0.0340157 0.0348346,0.0580236 0.000866142,0.0240118 -0.0105945,0.0468189 -0.0304488,0.0604173 -0.102067,0.0699921 -0.162972,0.185524 -0.162972,0.30902 1.1811e-005,0.112543 0.049937,0.218157 0.137028,0.289713 0.0170591,0.0140079 0.0265512,0.035252 0.0255748,0.057311 -0.000952756,0.0220433 -0.0122992,0.0423583 -0.0305709,0.0548189 -0.117165,0.0800827 -0.187209,0.212705 -0.187209,0.354764 2.3622e-005,0.204894 0.145921,0.382248 0.346772,0.421673 0.0238819,0.00466929 0.0436063,0.021374 0.0521299,0.0441181 0.00852756,0.0227362 0.00475197,0.0482913 -0.0101142,0.0675512 -0.0584488,0.0759055 -0.0893976,0.166598 -0.0893976,0.262236 7.87402e-006,0.237012 0.192933,0.429835 0.429961,0.429835 0.00927165,0 0.0163189,-0.000181102 0.0224094,-0.000559055 0.0014685,-9.84252e-005 0.00292126,-0.000145669 0.00440157,-0.000153543zm1.23044 1.27551c-0.29965,0 -0.572488,-0.14702 -0.737283,-0.395126 -0.328724,-0.0253386 -0.59013,-0.303409 -0.59013,-0.63702 1.1811e-005,-0.0355787 0.0029252,-0.0708898 0.00865354,-0.105602 -0.285626,-0.0307874 -0.508768,-0.273276 -0.508768,-0.566886 7.87402e-006,-0.0932913 0.0221693,-0.183008 0.0647992,-0.26398 -0.215819,-0.0837008 -0.364185,-0.293642 -0.364185,-0.531598 1.9685e-005,-0.159937 0.0668701,-0.31085 0.182213,-0.417807 -0.0814803,-0.0931772 -0.127039,-0.212811 -0.127039,-0.338799 1.1811e-005,-0.136874 0.0544449,-0.266614 0.148965,-0.362142 -0.127768,-0.107472 -0.204138,-0.267634 -0.204138,-0.437055 1.9685e-005,-0.280429 0.20426,-0.514575 0.471736,-0.56126 -0.0203228,-0.0727795 -0.0274055,-0.148917 -0.0205866,-0.224327 0.0277756,-0.309028 0.282583,-0.551705 0.592929,-0.564484 0.0625079,-0.00264173 0.12387,0.00388583 0.183067,0.0193898 0.0257047,-0.319504 0.293906,-0.571646 0.619843,-0.571646 0.153724,-1.5748e-005 0.300854,0.0569882 0.414248,0.1585 0.0863701,-0.0850276 0.200488,-0.1585 0.37539,-0.1585l0.00331496 -1.5748e-005c0.205457,0.00120472 0.372323,0.17078 0.372323,0.378012l0.000141732 4.69484c0,0.488307 -0.397339,0.885508 -0.885492,0.885508z"/><path class="fil0" d="M3.21268 4.65054c-0.0582402,0 -0.140213,-0.00575197 -0.231319,-0.0293228 -0.161972,-0.0419016 -0.385622,-0.149874 -0.531173,-0.42639 -0.0181496,-0.0342913 -0.00487402,-0.0767205 0.0293543,-0.0947677 0.0343543,-0.0180433 0.0767323,-0.00488583 0.0947598,0.0293858 0.231543,0.439713 0.687933,0.379839 0.707177,0.377075 0.0383819,-0.00546457 0.0739331,0.0210315 0.0795354,0.0593031 0.00562992,0.038248 -0.0208268,0.073811 -0.0590748,0.0795118 -0.00279921,0.000409449 -0.0361732,0.0052126 -0.0892598,0.00520472z"/><path class="fil0" d="M1.7787 5.9992c-0.0370276,0 -0.0679646,-0.0289803 -0.0700394,-0.0664961 -0.00206693,-0.038622 0.0275315,-0.0716181 0.0661417,-0.073689 0.00304724,-0.000255906 0.247744,-0.0165669 0.38635,-0.188181 0.0862598,-0.106583 0.115713,-0.253961 0.0873307,-0.437756 -0.00485433,-0.0318386 0.0125433,-0.0628858 0.0421457,-0.0753583 0.0297362,-0.0124843 0.064063,-0.00316929 0.0833071,0.0225945 0.00512992,0.00650787 0.139709,0.17274 0.477831,0.127673 0.0384882,-0.00512992 0.073689,0.0218031 0.0788031,0.0601693 0.00512205,0.0384843 -0.0219213,0.0738071 -0.0602913,0.0789252 -0.219602,0.0292244 -0.373079,-0.0181457 -0.471004,-0.0721063 -0.00217323,0.152496 -0.0456732,0.281606 -0.129843,0.38526 -0.17878,0.219972 -0.474413,0.238122 -0.486965,0.23885 -0.00119291,-1.1811e-005 -0.00255512,0.000122047 -0.00376772,0.000114173z"/><path class="fil0" d="M1.77884 5.13746c-0.00487795,0 -0.00975984,-0.000484252 -0.0146378,-0.00153543 -0.037874,-0.00802756 -0.0621142,-0.0452126 -0.0540787,-0.0830906l7.87402e-006 0c0.000744094,-0.00363386 0.0740512,-0.367169 -0.10098,-0.610748 -0.0884173,-0.122945 -0.228008,-0.196563 -0.41485,-0.218843 -0.000732283,-9.05512e-005 -0.00122047,-0.000145669 -0.00146457,-0.000169291 -0.0382362,-0.00500394 -0.0652874,-0.039937 -0.0605354,-0.0782323 0.00475984,-0.0382992 0.0395866,-0.0655669 0.0778307,-0.0610079 0.000488189,4.72441e-005 0.000854331,9.44882e-005 0.00122047,0.000145669 0.00672047,0.00069685 0.0904921,0.00861024 0.17978,-0.0260315 0.11889,-0.0461299 0.194394,-0.146209 0.22472,-0.297484 0.00757087,-0.0379921 0.0444606,-0.0626575 0.0825787,-0.0550315 0.0380118,0.00759843 0.0626063,0.0445669 0.054937,0.0825591 -0.0426299,0.213457 -0.155299,0.321969 -0.259559,0.377094 0.0931929,0.0470354 0.170031,0.112445 0.229717,0.195831 0.211083,0.294472 0.127528,0.703661 0.12387,0.720929 -0.00705906,0.0329961 -0.0361732,0.055626 -0.0685551,0.0556142z"/><path class="fil0" d="M1.27091 3.48348c-0.000712598,0 -0.00146063,0 -0.00219291,-2.75591e-005 -0.0387244,-0.00114961 -0.0691811,-0.0334567 -0.0680906,-0.072189 0.00026378,-0.00664173 0.00585039,-0.164661 0.0918386,-0.332346 0.0805276,-0.157138 0.248476,-0.352654 0.591106,-0.391776 0.0385118,-0.00441732 0.0732008,0.0232559 0.0777126,0.0617402 0.00440551,0.0384921 -0.0232677,0.0732677 -0.0617598,0.0776614 -0.225567,0.025748 -0.387815,0.132217 -0.482209,0.316406 -0.0717283,0.139772 -0.076374,0.27113 -0.076374,0.272429 -0.00108268,0.0380394 -0.0322717,0.0681102 -0.0700315,0.0681024z"/><path class="fil0" d="M1.37433 2.13738c-0.000988189,0 -0.00196457,-1.5748e-005 -0.00294094,-6.69291e-005 -0.0387165,-0.00160236 -0.068815,-0.0342717 -0.0672323,-0.0729843 0.000732283,-0.0167008 0.0200945,-0.411634 0.296587,-0.659173 0.159098,-0.142496 0.368933,-0.205807 0.623252,-0.188193 0.038622,0.00266929 0.0678465,0.0361732 0.0651693,0.0748346 -0.00267717,0.0386496 -0.0364213,0.0679252 -0.0749055,0.0651378 -0.215091,-0.0149528 -0.390134,0.0365039 -0.519976,0.152764 -0.232748,0.208437 -0.249811,0.556921 -0.249937,0.560417 -0.00155512,0.0377205 -0.0326417,0.0672717 -0.0700157,0.0672638z"/><path class="fil0" d="M2.12804 3.40675c-0.0387244,0 -0.0701693,-0.0313898 -0.0701693,-0.0701339 1.1811e-005,-0.0387638 0.0314252,-0.0701575 0.0701575,-0.0701575 0.187354,-7.87402e-006 0.339705,-0.224232 0.339705,-0.49987 2.3622e-005,-0.275626 -0.152374,-0.499858 -0.339705,-0.499858 -0.0387126,-1.1811e-005 -0.0701575,-0.0314134 -0.0701575,-0.0701575 1.1811e-005,-0.038748 0.0314252,-0.0701575 0.0701575,-0.0701575 0.264693,-1.1811e-005 0.48002,0.287177 0.48002,0.640173 2.3622e-005,0.352996 -0.215346,0.640173 -0.480008,0.640161z"/><path class="fil0" d="M2.77031 2.08615c-0.00452362,0 -0.00903937,-0.000429134 -0.0136654,-0.00133071 -0.0379961,-0.00748031 -0.0627283,-0.0443583 -0.0552992,-0.0823858 0.113661,-0.577398 0.593173,-0.531492 0.598039,-0.530976 0.0385118,0.00422441 0.0662598,0.0389016 0.062,0.0774134 -0.00424803,0.0383898 -0.0384882,0.0661024 -0.0771024,0.0620945 -0.0155827,-0.00155906 -0.357122,-0.029063 -0.445181,0.418559 -0.00655512,0.0334409 -0.0359291,0.0566339 -0.0687913,0.056626z"/><path class="fil0" d="M3.60597 2.14629l-0.314256 0c-0.0388346,0 -0.0701614,-0.0314094 -0.0701614,-0.0701535 3.93701e-006,-0.0387559 0.0313031,-0.0701575 0.0701575,-0.0701575l0.31426 -3.93701e-006c0.142508,0 0.266732,-0.101311 0.295354,-0.240886l0.0947598 -0.462169c0.0420394,-0.204571 0.223992,-0.353031 0.432882,-0.353031l0.250441 -3.93701e-006c0.0387205,0 0.0701417,0.0314134 0.0701417,0.0701614 1.5748e-005,0.0387323 -0.0314291,0.0701457 -0.0701575,0.0701457l-0.250413 -7.87402e-006c-0.142508,0 -0.266756,0.101346 -0.295382,0.240957l-0.0948701 0.462098c-0.0417638,0.204551 -0.223882,0.353055 -0.432756,0.353051z"/><path class="fil0" d="M5.01789 0.751713c-0.147882,0 -0.268224,0.120307 -0.268224,0.268185 3.93701e-006,0.147866 0.120339,0.268193 0.268209,0.268193 0.147866,0 0.268205,-0.120315 0.268205,-0.268193 2.3622e-005,-0.147886 -0.120339,-0.268181 -0.268189,-0.268185zm0 0.676677c-0.22522,0 -0.408539,-0.183248 -0.408539,-0.408492 3.93701e-006,-0.225256 0.183311,-0.408496 0.408524,-0.408496 0.225228,-3.93701e-006 0.408524,0.183248 0.408524,0.408496 1.9685e-005,0.225236 -0.183315,0.408496 -0.408508,0.408492z"/><path class="fil0" d="M3.99806 2.83815l-0.706343 0c-0.0388346,0 -0.0701614,-0.0314134 -0.0701614,-0.0701575 3.93701e-006,-0.038752 0.0313031,-0.0701575 0.0701575,-0.0701575l0.706346 0c0.109622,0 0.206673,-0.0699646 0.24139,-0.174094l0.0911181 -0.273736c0.0538228,-0.161543 0.204366,-0.270067 0.37465,-0.270067l0.504264 -1.1811e-005c0.0387244,0 0.0701496,0.0314252 0.0701496,0.0701693 7.87402e-006,0.0387402 -0.0314291,0.0701575 -0.0701575,0.0701575l-0.504248 -1.1811e-005c-0.109732,0 -0.206831,0.0699724 -0.241543,0.174102l-0.0911024 0.27374c-0.0538228,0.161528 -0.204386,0.270067 -0.37452,0.270067z"/><path class="fil0" d="M5.54785 1.78206c-0.147882,0 -0.268224,0.120303 -0.268224,0.268181 7.87402e-006,0.147858 0.120335,0.268185 0.268205,0.268185 0.14787,-3.93701e-006 0.268205,-0.120319 0.268205,-0.268185 0,-0.147886 -0.120343,-0.268181 -0.268185,-0.268181zm0 0.676661c-0.225327,0 -0.408539,-0.183248 -0.408539,-0.40848 7.87402e-006,-0.225252 0.183189,-0.408496 0.40852,-0.408496 0.225232,0 0.40852,0.183252 0.40852,0.408496 0,0.225224 -0.183311,0.408484 -0.4085,0.40848z"/><path class="fil0" d="M4.67941 5.8768l-0.250429 0c-0.208886,0 -0.390874,-0.148472 -0.432894,-0.353098l-0.0947402 -0.462087c-0.0286417,-0.139618 -0.152878,-0.240925 -0.295386,-0.240925l-0.314244 -7.87402e-006c-0.0388346,0 -0.0701614,-0.0314016 -0.0701614,-0.0701496 3.93701e-006,-0.0387441 0.0313031,-0.0701575 0.0701575,-0.0701575l0.31426 -7.87402e-006c0.208882,0 0.390965,0.148508 0.432744,0.353098l0.0948858 0.462098c0.0286417,0.139575 0.152858,0.240925 0.295366,0.240925l0.250441 -3.93701e-006c0.0387205,0 0.0701417,0.0314291 0.0701417,0.0701614 1.5748e-005,0.0387283 -0.0314291,0.0701575 -0.0701417,0.0701535z"/><path class="fil0" d="M5.01789 5.53856c-0.147882,0 -0.268224,0.120339 -0.268224,0.268209 3.93701e-006,0.147858 0.120339,0.268205 0.268209,0.268205 0.147866,-7.87402e-006 0.268205,-0.120339 0.268205,-0.268205 2.3622e-005,-0.14787 -0.120339,-0.268209 -0.268189,-0.268209zm0 0.67672c-0.22522,0 -0.408539,-0.183303 -0.408539,-0.408512 3.93701e-006,-0.22522 0.183311,-0.408524 0.408524,-0.408524 0.225228,-1.1811e-005 0.408524,0.183311 0.408524,0.408524 1.9685e-005,0.225197 -0.183315,0.40852 -0.408508,0.408512z"/><path class="fil0" d="M5.20948 4.84673l-0.504256 0c-0.170268,0 -0.320835,-0.108535 -0.374673,-0.270071l-0.0910787 -0.273732c-0.0347244,-0.104138 -0.131815,-0.174091 -0.241437,-0.174091l-0.706319 -1.5748e-005c-0.0388346,0 -0.0701614,-0.0313976 -0.0701614,-0.0701417 3.93701e-006,-0.038748 0.0313031,-0.0701417 0.0701575,-0.0701417l0.706346 -1.5748e-005c0.170134,0 0.320677,0.108535 0.374516,0.270067l0.0911299 0.27372c0.034689,0.104142 0.131768,0.174106 0.241512,0.174106l0.504264 0c0.0387244,0 0.0701496,0.0314134 0.0701496,0.0701575 7.87402e-006,0.0387402 -0.0314291,0.0701575 -0.0701496,0.0701575z"/><path class="fil0" d="M5.54785 4.50823c-0.147882,0 -0.268224,0.120315 -0.268224,0.268197 7.87402e-006,0.14787 0.120335,0.268193 0.268205,0.268193 0.14787,-1.1811e-005 0.268205,-0.120315 0.268205,-0.268193 0,-0.147886 -0.120343,-0.268185 -0.268185,-0.268197zm0 0.676677c-0.225327,0 -0.408539,-0.183236 -0.408539,-0.40848 7.87402e-006,-0.225252 0.183189,-0.4085 0.40852,-0.4085 0.225232,-1.1811e-005 0.40852,0.183252 0.40852,0.4085 0,0.225236 -0.183311,0.408492 -0.4085,0.40848z"/><path class="fil0" d="M6.06856 3.14515c-0.147878,0 -0.268228,0.120307 -0.268228,0.268173 1.1811e-005,0.147878 0.120339,0.268181 0.268209,0.268181 0.147866,-1.1811e-005 0.268205,-0.120303 0.268205,-0.268181 0,-0.147882 -0.120343,-0.268169 -0.268185,-0.268173zm0 0.676657c-0.22522,0 -0.408543,-0.18324 -0.408543,-0.408484 1.1811e-005,-0.225244 0.183311,-0.408484 0.408524,-0.408484 0.225236,-3.93701e-006 0.40852,0.183248 0.40852,0.408484 0,0.22524 -0.183311,0.408496 -0.4085,0.408484z"/><path class="fil0" d="M5.73007 3.48348l-2.43836 0c-0.0388346,0 -0.0701614,-0.0314016 -0.0701614,-0.0701575 3.93701e-006,-0.038752 0.0313031,-0.0701496 0.0701575,-0.0701496l2.43836 -7.87402e-006c0.0387205,0 0.0701299,0.0314094 0.0701299,0.0701575 2.75591e-005,0.038752 -0.0314252,0.0701575 -0.0701299,0.0701575z"/></g></g><rect class="fil1" width="6.82666" height="6.82666"/><text x="0" y="21.82666" fill="#000000" font-size="5px" font-weight="bold" font-family="'Helvetica Neue', Helvetica, Arial-Unicode, Arial, Sans-serif">Created by Circlon Tech</text><text x="0" y="26.82666" fill="#000000" font-size="5px" font-weight="bold" font-family="'Helvetica Neue', Helvetica, Arial-Unicode, Arial, Sans-serif">from the Noun Project</text></svg>